# xmcd CD database file
#
# Track frame offsets:
#	150
#	19955
#	56807
#	82691
#	106012
#	128852
#	148375
#	175130
#	208155
#	236395
#
# Disc length: 3476 seconds
#
# Revision: 0
# Processed by: cddbd v1.5.1PL2 Copyright (c) Steve Scherf et al.
# Submitted via: CDex 1.60beta1
#
DISCID=860d920a
DTITLE=idea6 - METROPOLI
DYEAR=1900
DGENRE=Jazz
TTITLE0=metropoli
TTITLE1=new born
TTITLE2=minor mood
TTITLE3=pittura
TTITLE4=train up
TTITLE5=windly coast
TTITLE6=vivacita'
TTITLE7=marmaris
TTITLE8=autumn in milano
TTITLE9=tokyo lullaby
EXTD=
EXTT0=
EXTT1=
EXTT2=
EXTT3=
EXTT4=
EXTT5=
EXTT6=
EXTT7=
EXTT8=
EXTT9=
PLAYORDER=
